<?xml version="1.0" encoding="UTF-8"?>
<!DOCTYPE svg PUBLIC "-//W3C//DTD SVG 1.1//EN" "http://www.w3.org/Graphics/SVG/1.1/DTD/svg11.dtd">
<!-- Creator: CorelDRAW X7 -->
<svg xmlns="http://www.w3.org/2000/svg" xml:space="preserve" width="2.88933in" height="0.968878in" version="1.1" style="shape-rendering:geometricPrecision; text-rendering:geometricPrecision; image-rendering:optimizeQuality; fill-rule:evenodd; clip-rule:evenodd"
viewBox="0 0 2301 772"
 xmlns:xlink="http://www.w3.org/1999/xlink">
 <defs>
  <style type="text/css">
   <![CDATA[
    .fil1 {fill:#FA6803}
    .fil0 {fill:#FA6803;fill-rule:nonzero}
   ]]>
  </style>
 </defs>
 <g id="Layer_x0020_1">
  <metadata id="CorelCorpID_0Corel-Layer"/>
  <path class="fil0" d="M118 665c-37,5 -64,-1 -83,-18 -18,-18 -28,-47 -30,-88l70 -22c1,25 4,42 10,54 7,11 16,16 30,14 9,-1 16,-5 20,-11 4,-7 6,-15 6,-24 0,-16 -3,-28 -10,-38 -7,-9 -18,-19 -33,-30l-43 -30c-11,-8 -19,-16 -26,-23 -7,-7 -12,-17 -17,-28 -5,-12 -7,-26 -7,-41 0,-32 9,-57 28,-77 19,-20 45,-33 79,-37 11,-2 21,-2 30,-1 10,1 18,3 24,5 7,3 13,7 18,12 5,5 9,10 13,16 3,6 5,12 8,19 2,8 4,15 5,21 1,7 1,14 2,22l-70 21c0,-8 0,-15 -1,-20 0,-5 -1,-11 -3,-16 -1,-6 -3,-10 -5,-13 -2,-3 -5,-5 -9,-7 -4,-1 -9,-1 -14,0 -9,1 -16,6 -21,13 -5,7 -7,14 -7,23 0,7 1,14 3,19 1,6 4,11 8,15 4,5 7,9 10,11 4,3 8,7 14,11l42 30c9,7 17,13 24,20 6,6 13,14 19,23 5,8 10,18 13,29 3,11 5,22 5,35 0,28 -9,53 -28,74 -19,21 -43,33 -74,37z"/>
  <path id="1" class="fil0" d="M314 463l43 -6 0 -27c0,-12 -2,-21 -5,-25 -4,-5 -10,-7 -17,-6 -8,1 -13,5 -17,11 -3,7 -4,17 -4,32l0 21zm22 172c-32,4 -56,-1 -72,-16 -15,-15 -23,-38 -24,-70l0 -90c0,-32 8,-57 24,-77 16,-19 39,-31 71,-35 32,-4 55,1 70,16 14,15 22,39 22,73l0 46 -113 16 0 46c0,13 2,24 5,30 2,7 8,10 17,8 14,-2 22,-13 22,-34l-1 -26 70 -9 0 22c0,28 -8,51 -23,68 -16,17 -39,28 -68,32z"/>
  <path id="2" class="fil0" d="M527 434l43 -6 0 -28c0,-12 -2,-20 -5,-25 -4,-4 -9,-6 -17,-5 -8,1 -13,5 -16,11 -4,6 -5,17 -5,32l0 21zm22 171c-32,5 -55,0 -71,-15 -16,-15 -24,-38 -24,-70l-1 -90c0,-32 8,-58 24,-77 16,-19 40,-31 71,-35 32,-5 55,1 70,15 14,16 22,40 22,73l0 47 -113 16 0 45c0,14 2,24 5,31 3,6 8,9 17,8 14,-2 22,-14 22,-34l0 -26 69 -10 0 23c0,28 -8,51 -23,68 -16,17 -38,27 -68,31z"/>
  <path id="3" class="fil0" d="M790 568l-1 -279 72 -10 0 23c19,-21 41,-34 67,-37 11,-2 21,-1 29,4 9,4 15,12 19,23 20,-26 44,-40 72,-44 17,-2 30,2 39,12 10,10 15,26 15,47l1 217 -72 10 -1 -210c0,-9 -1,-15 -4,-18 -3,-3 -8,-5 -14,-3 -10,1 -20,7 -30,17 0,0 0,2 0,4l1 217 -72 10 -1 -210c0,-9 -1,-15 -4,-18 -3,-4 -7,-5 -13,-4 -1,0 -1,0 -1,0 -10,2 -20,7 -31,18l1 221 -72 10z"/>
  <path id="4" class="fil0" d="M1144 597l0 -52c18,-2 31,-6 38,-10 5,-4 8,-10 8,-18 0,-2 0,-4 -1,-6 -1,-8 -4,-22 -10,-41 -3,-12 -13,-50 -32,-113 -19,-64 -29,-101 -32,-113l71 -10 35 166 29 -175 71 -9 -66 302c-10,44 -42,69 -99,77 -1,0 -1,0 -2,0l-10 2z"/>
  <path id="5" class="fil0" d="M1546 468c-32,4 -55,-1 -71,-16 -16,-15 -24,-38 -24,-69l0 -92c0,-31 7,-57 23,-76 16,-19 39,-30 71,-35 61,-8 92,16 92,72l0 27 -71 9 0 -28c0,-12 -2,-20 -5,-24 -3,-5 -8,-6 -16,-5 -7,1 -13,4 -16,10 -3,6 -4,17 -4,32l0 109c0,14 2,24 5,29 4,5 9,7 16,6 8,-1 13,-4 16,-10 3,-5 4,-14 4,-25l0 -33 71 -10 0 31c0,28 -7,50 -23,67 -15,16 -38,27 -68,31z"/>
  <path id="6" class="fil0" d="M1757 439c-30,4 -54,-1 -70,-15 -16,-14 -25,-36 -25,-66l0 -100c0,-30 8,-54 24,-73 16,-18 40,-30 70,-34 31,-4 55,1 72,15 16,13 25,36 25,66l0 99c0,31 -8,55 -24,74 -17,18 -41,30 -72,34zm1 -50c8,-1 14,-5 17,-13 3,-7 5,-17 5,-30l-1 -109c0,-13 -1,-23 -4,-29 -3,-6 -9,-9 -18,-7 -9,1 -14,5 -17,12 -3,7 -5,17 -5,30l1 110c0,12 1,22 4,28 3,6 9,9 18,8z"/>
  <path id="7" class="fil0" d="M1979 359c6,-1 14,-4 23,-10l-1 -177c-8,-3 -15,-5 -23,-4 -8,2 -14,6 -17,13 -4,7 -6,16 -5,26l0 116c0,26 8,38 23,36zm-29 53c-46,7 -68,-21 -68,-84l-1 -98c0,-19 2,-35 6,-50 5,-15 12,-27 22,-37 11,-10 24,-16 39,-18 19,-3 36,2 53,14l0 -129 74 -10 1 390 -74 10 0 -20c-17,19 -34,30 -52,32z"/>
  <path id="8" class="fil0" d="M2182 205l44 -6 -1 -27c0,-12 -1,-20 -5,-25 -4,-5 -9,-6 -17,-5 -8,1 -13,4 -16,11 -3,6 -5,17 -5,31l0 21zm22 172c-31,5 -55,-1 -71,-15 -16,-15 -24,-39 -24,-71l-1 -90c0,-31 8,-57 24,-76 16,-19 40,-31 71,-36 32,-4 56,1 70,16 15,15 22,40 22,73l0 47 -113 15 0 46c0,14 2,24 5,31 3,6 8,9 17,8 15,-2 22,-14 22,-35l0 -26 69 -9 0 23c0,28 -7,50 -23,67 -16,18 -38,28 -68,32z"/>
  <path class="fil1" d="M1092 618l-1092 154 0 -57 1058 -149 34 52zm207 -86l1002 -141 0 57 -1002 141 0 -57z"/>
 </g>
</svg>
