<?xml version="1.0" encoding="UTF-8"?>
<!DOCTYPE svg PUBLIC "-//W3C//DTD SVG 1.1//EN" "http://www.w3.org/Graphics/SVG/1.1/DTD/svg11.dtd">
<!-- Creator: CorelDRAW X7 -->
<svg xmlns="http://www.w3.org/2000/svg" xml:space="preserve" width="2.64918in" height="0.829303in" version="1.1" style="shape-rendering:geometricPrecision; text-rendering:geometricPrecision; image-rendering:optimizeQuality; fill-rule:evenodd; clip-rule:evenodd"
viewBox="0 0 622 195"
 xmlns:xlink="http://www.w3.org/1999/xlink">
 <defs>
  <style type="text/css">
   <![CDATA[
    .fil1 {fill:#FA6803}
    .fil0 {fill:#FA6803;fill-rule:nonzero}
   ]]>
  </style>
 </defs>
 <g id="Layer_x0020_1">
  <metadata id="CorelCorpID_0Corel-Layer"/>
  <path class="fil0" d="M37 163c-7,1 -12,1 -17,0 -4,-2 -8,-4 -11,-7 -2,-3 -4,-7 -5,-11 -1,-5 -2,-10 -2,-16l0 -40c0,-7 0,-12 2,-17 1,-5 3,-9 5,-13 3,-4 6,-7 11,-9 4,-2 10,-4 16,-5 6,-1 12,-1 16,0 4,1 8,3 10,6 3,2 4,6 5,9 2,4 2,9 2,14l0 10 -23 3 0 -11c0,-1 0,-2 0,-3 0,0 0,-1 0,-2 0,-1 0,-2 0,-3 -1,0 -1,-1 -1,-2 0,0 0,-1 -1,-1 0,-1 0,-1 -1,-2 0,0 -1,-1 -2,-1 0,0 -1,0 -2,0 -1,0 -2,0 -3,0 -2,0 -3,1 -4,1 -2,1 -3,2 -3,3 -1,1 -2,3 -2,4 0,2 -1,3 -1,5 0,1 0,3 0,5l0 51c0,6 1,10 3,12 1,3 4,4 8,3 1,0 2,0 4,-1 1,0 2,-1 2,-2 1,-1 2,-2 2,-3 0,-1 1,-2 1,-3 0,-2 0,-3 0,-4 0,-1 0,-3 0,-4l0 -12 23 -3 0 10c0,5 0,10 -1,14 -1,4 -3,8 -5,12 -3,3 -6,6 -11,8 -4,3 -9,4 -15,5z"/>
  <path id="1" class="fil0" d="M105 153c-9,2 -16,0 -20,-4 -5,-4 -8,-11 -8,-20l0 -29c0,-9 3,-16 7,-21 5,-6 12,-9 21,-10 9,-2 16,0 21,4 5,4 7,10 7,19l1 30c0,9 -3,16 -8,21 -5,6 -12,9 -21,10zm0 -14c3,-1 5,-2 6,-4 0,-2 1,-5 1,-9l0 -32c0,-4 -1,-7 -2,-9 0,-1 -2,-2 -5,-2 -2,1 -4,2 -5,4 -1,2 -1,5 -1,9l0 32c0,4 0,7 1,8 1,2 3,3 5,3z"/>
  <path id="2" class="fil0" d="M143 147l0 -82 22 -3 0 8c7,-7 13,-12 20,-12 5,-1 9,0 11,3 3,3 4,8 4,13l0 65 -22 3 0 -61c0,-2 0,-4 -1,-5 -1,-1 -2,-1 -4,-1 -2,0 -5,2 -8,4l0 65 -22 3z"/>
  <path id="3" class="fil0" d="M235 135c-4,1 -7,1 -9,0 -3,-1 -5,-2 -6,-3 -2,-2 -3,-3 -4,-6 -1,-2 -1,-4 -2,-7 0,-2 0,-5 0,-8l0 -42 -8 1 -1 -14 9 -1 -1 -25 23 -3 0 25 12 -2 0 14 -12 2 0 45c0,4 2,6 7,6 1,0 1,0 1,0 1,-1 3,-1 6,-2l0 17c-6,2 -11,3 -14,3 -1,0 -1,0 -1,0z"/>
  <path id="4" class="fil0" d="M282 114c1,-1 2,-1 4,-2 1,-1 2,-3 3,-4l0 -22c-4,2 -7,5 -10,9 -2,3 -4,7 -4,10 0,3 1,5 2,7 1,1 3,2 5,2zm-8 16c-4,1 -7,0 -10,-1 -3,-2 -5,-4 -7,-7 -1,-3 -2,-6 -2,-9 0,-2 0,-4 1,-6 0,-2 0,-4 1,-6 1,-1 2,-3 3,-4 1,-2 2,-3 3,-5 1,-1 2,-2 4,-3 1,-2 3,-3 4,-3 1,-1 3,-2 5,-3 1,-1 3,-2 4,-3 1,0 3,-1 5,-2 2,-1 3,-2 4,-2l0 -8c0,-3 -1,-5 -1,-6 -1,-2 -3,-2 -5,-2 -4,0 -5,3 -6,9l0 5 -21 2c0,-1 0,-2 0,-3 1,-9 4,-15 8,-20 5,-5 12,-8 21,-9 8,-1 15,0 19,4 4,4 6,10 6,17l0 38c0,6 1,13 2,21l-20 2c-1,-6 -2,-9 -2,-11 -1,4 -3,7 -6,10 -2,3 -6,5 -10,5z"/>
  <path id="5" class="fil0" d="M347 120c-9,1 -16,0 -21,-5 -4,-4 -7,-11 -7,-20l0 -27c0,-9 2,-17 7,-22 5,-6 12,-9 21,-11 18,-2 27,5 27,21l0 8 -21 3 0 -8c0,-4 0,-6 -1,-7 -1,-2 -3,-2 -5,-2 -2,0 -4,2 -5,3 -1,2 -1,5 -1,9l0 33c0,4 1,7 2,8 1,2 2,2 4,2 3,0 4,-1 5,-3 1,-1 1,-4 1,-7l0 -10 21 -3 0 9c0,8 -2,15 -7,20 -4,5 -11,8 -20,9z"/>
  <path id="6" class="fil0" d="M407 112c-4,0 -7,0 -9,-1 -3,-1 -5,-2 -6,-3 -2,-1 -3,-3 -4,-5 -1,-3 -1,-5 -2,-7 0,-3 0,-6 0,-9l0 -42 -8 1 0 -14 8 -1 0 -24 22 -3 0 24 12 -2 0 15 -12 1 0 45c0,5 3,7 8,6 0,0 0,0 0,0 2,0 3,-1 6,-1l0 16c-6,2 -11,3 -14,3 0,0 -1,0 -1,1z"/>
  <path id="7" class="fil0" d="M464 103l0 -83 21 -2 0 6c5,-6 12,-10 20,-11 3,0 6,0 8,2 3,1 5,3 6,6 6,-7 13,-11 21,-13 5,0 9,1 12,4 2,3 4,8 4,14l0 64 -21 3 0 -62c0,-3 -1,-4 -2,-5 0,-1 -2,-2 -4,-1 -3,0 -6,2 -9,4 0,1 0,1 0,2l1 64 -21 3 -1 -62c0,-3 0,-5 -1,-6 -1,-1 -2,-1 -4,-1 0,0 0,0 0,0 -3,1 -6,3 -9,6l0 65 -21 3z"/>
  <path id="8" class="fil0" d="M587 35l13 -1 0 -8c0,-4 -1,-6 -2,-8 -1,-1 -3,-2 -5,-1 -2,0 -4,1 -5,3 -1,2 -1,5 -1,9l0 6zm6 51c-9,1 -16,0 -21,-4 -4,-5 -7,-12 -7,-21l0 -27c0,-9 2,-17 7,-22 5,-6 12,-9 21,-11 10,-1 16,1 21,5 4,4 6,12 6,21l0 14 -33 5 0 13c0,4 0,7 1,9 1,2 3,3 5,3 5,-1 7,-4 7,-10l0 -8 20 -3 0 7c0,8 -2,15 -7,20 -4,5 -11,8 -20,9z"/>
  <polygon class="fil1" points="0,178 622,90 622,107 0,195 "/>
 </g>
</svg>
