<?xml version="1.0" encoding="UTF-8"?>
<!DOCTYPE svg PUBLIC "-//W3C//DTD SVG 1.1//EN" "http://www.w3.org/Graphics/SVG/1.1/DTD/svg11.dtd">
<!-- Creator: CorelDRAW X7 -->
<svg xmlns="http://www.w3.org/2000/svg" xml:space="preserve" width="4.47317in" height="6.46391in" version="1.1" style="shape-rendering:geometricPrecision; text-rendering:geometricPrecision; image-rendering:optimizeQuality; fill-rule:evenodd; clip-rule:evenodd"
viewBox="0 0 4603 6652"
 xmlns:xlink="http://www.w3.org/1999/xlink">
 <defs>
  <style type="text/css">
   <![CDATA[
    .str0 {stroke:#373435;stroke-width:3.08736}
    .fil2 {fill:none;fill-rule:nonzero}
    .fil1 {fill:black;fill-rule:nonzero}
    .fil0 {fill:#FA6803;fill-rule:nonzero}
    .fil3 {fill:#FA6803;fill-opacity:0.301961}
   ]]>
  </style>
 </defs>
 <g id="Layer_x0020_1">
  <metadata id="CorelCorpID_0Corel-Layer"/>
  <polygon class="fil0" points="368,6307 300,5812 388,5800 425,6103 470,5789 539,5779 588,6079 623,5768 710,5756 645,6269 557,6281 506,5970 458,6295 "/>
  <polygon id="1" class="fil0" points="755,6254 753,5750 858,5735 859,5942 949,5930 948,5723 1053,5709 1055,6213 950,6227 949,6003 859,6016 860,6240 "/>
  <path id="2" class="fil0" d="M1261 6191c-28,4 -52,3 -72,-1 -19,-5 -35,-14 -47,-27 -12,-13 -20,-29 -25,-48 -6,-19 -8,-42 -9,-69l0 -187c0,-27 2,-50 7,-71 6,-20 14,-38 26,-54 11,-17 27,-29 47,-40 19,-10 43,-16 71,-20 54,-8 93,1 117,25 24,25 36,64 36,119l0 186c1,54 -11,97 -35,128 -23,32 -62,51 -116,59zm-21 -75c6,2 12,2 20,1 8,-1 15,-3 21,-6 5,-4 10,-8 13,-12 3,-4 6,-10 7,-16 2,-7 3,-13 4,-19 0,-6 1,-13 1,-21l-1 -236c0,-8 0,-15 -1,-20 -1,-6 -2,-12 -4,-18 -2,-6 -4,-10 -7,-13 -4,-4 -8,-6 -14,-8 -5,-1 -12,-2 -20,-1 -8,1 -15,4 -20,7 -6,3 -10,7 -13,11 -3,4 -6,9 -7,16 -2,6 -3,12 -4,18 0,6 0,13 0,21l0 236c0,8 1,15 1,21 1,5 2,11 4,17 2,6 4,11 7,14 3,4 8,6 13,8z"/>
  <polygon id="3" class="fil0" points="1619,6135 1617,5631 1721,5616 1723,6121 "/>
  <path id="4" class="fil0" d="M1918 6100c-48,7 -84,-1 -107,-24 -24,-22 -37,-60 -39,-113l90 -28c1,31 5,54 13,69 9,15 21,21 38,19 12,-2 21,-7 27,-15 5,-9 8,-19 8,-31 0,-20 -5,-36 -14,-49 -8,-12 -23,-25 -42,-39l-56 -39c-14,-10 -25,-20 -33,-29 -9,-9 -16,-21 -22,-37 -6,-15 -9,-33 -9,-52 -1,-41 12,-74 36,-100 25,-26 58,-42 101,-48 15,-2 28,-2 40,-1 12,1 22,3 31,7 9,4 16,9 23,15 6,7 12,13 16,21 4,7 8,15 11,25 3,9 5,18 6,27 1,8 2,18 3,28l-90 26c0,-10 -1,-18 -2,-25 0,-7 -2,-14 -3,-21 -2,-7 -4,-13 -7,-16 -3,-4 -7,-7 -12,-9 -5,-2 -11,-2 -18,-1 -11,2 -20,8 -27,17 -6,9 -9,19 -9,31 0,9 1,17 3,24 3,7 6,14 11,20 5,6 10,10 14,14 4,3 10,8 17,14l55 39c11,8 21,17 30,25 9,8 17,18 25,29 7,11 13,24 17,38 4,14 6,29 6,46 0,36 -12,68 -36,95 -24,27 -56,43 -95,48z"/>
  <path id="5" class="fil0" d="M2374 6038c-48,6 -84,-2 -108,-24 -23,-23 -36,-61 -38,-114l90 -28c1,31 5,55 13,69 8,15 21,21 38,19 12,-2 21,-7 26,-15 6,-9 9,-19 9,-31 -1,-20 -5,-36 -14,-48 -9,-13 -23,-26 -42,-40l-56 -39c-14,-10 -25,-20 -34,-29 -8,-9 -16,-21 -22,-37 -5,-15 -8,-32 -9,-52 0,-41 12,-74 37,-100 25,-26 58,-42 101,-48 15,-2 28,-2 40,-1 12,1 22,4 31,7 8,4 16,9 23,15 6,7 12,14 16,21 4,7 8,15 10,25 3,9 6,18 7,27 1,9 2,18 3,28l-90 27c-1,-11 -1,-19 -2,-26 0,-7 -2,-14 -3,-21 -2,-7 -5,-13 -8,-16 -2,-4 -6,-7 -11,-9 -5,-2 -11,-2 -18,-1 -12,2 -20,8 -27,17 -6,9 -9,19 -9,31 0,9 1,17 3,24 2,7 6,14 11,20 5,6 10,11 14,14 4,4 9,8 17,14l55 39c11,8 21,17 30,25 9,9 17,18 24,29 8,11 14,24 18,38 4,14 6,29 6,46 0,36 -12,68 -36,95 -24,27 -56,43 -95,49z"/>
  <polygon id="6" class="fil0" points="2593,6001 2592,5572 2509,5583 2509,5508 2777,5471 2777,5547 2696,5558 2698,5986 "/>
  <polygon id="7" class="fil0" points="2805,5971 2803,5467 3027,5436 3027,5507 2908,5524 2908,5657 3001,5645 3001,5716 2909,5729 2909,5887 3030,5870 3030,5940 "/>
  <path id="8" class="fil0" d="M3170 5630l34 -5c23,-3 38,-11 46,-22 8,-11 12,-30 12,-55 0,-14 -1,-24 -2,-31 -1,-8 -4,-15 -8,-21 -4,-6 -9,-10 -17,-12 -8,-2 -19,-2 -32,0l-33 5 0 141zm-103 305l-2 -504 161 -22c89,-12 134,30 134,126 0,26 -3,49 -10,69 -7,19 -17,35 -31,47 -13,13 -28,22 -44,29 -17,7 -36,12 -58,15l-47 6 1 220 -104 14z"/>
  <polygon id="9" class="fil0" points="3398,5890 3397,5385 3501,5371 3502,5578 3593,5565 3592,5358 3697,5344 3699,5848 3594,5863 3593,5639 3502,5651 3503,5875 "/>
  <polygon id="10" class="fil0" points="3760,5840 3759,5335 3982,5305 3983,5376 3863,5392 3864,5526 3956,5513 3957,5585 3864,5597 3865,5755 3985,5739 3985,5809 "/>
  <polygon id="11" class="fil0" points="4022,5804 4020,5299 4093,5289 4209,5535 4208,5274 4295,5262 4296,5766 4227,5775 4110,5513 4111,5791 "/>
  <path id="12" class="fil0" d="M4403 5751l-1 -90 94 -13 1 90 -94 13zm2 -131l0 -80c69,-68 104,-130 103,-184 0,-3 0,-5 0,-7 -1,-14 -5,-24 -12,-31 -8,-6 -18,-8 -30,-6 -11,1 -20,6 -26,14 -6,8 -8,16 -8,26 0,2 0,3 0,5 0,8 2,18 6,29l-87 31c-6,-20 -8,-35 -8,-44 -1,-6 -1,-12 -1,-18 0,-29 8,-55 26,-77 20,-26 53,-42 97,-48 44,-6 78,1 102,20 24,19 36,49 36,89 0,37 -10,73 -31,109 -21,36 -48,70 -80,99l0 61 -87 12z"/>
  <path class="fil1" d="M1151 6499l-30 5 -6 -27c-3,-2 -9,-3 -16,-4 -6,-1 -14,-1 -21,1 -12,1 -20,5 -26,10 -7,6 -10,12 -10,19 0,7 4,12 10,16 6,3 17,6 33,9 23,3 40,9 52,18 12,8 17,21 17,37 0,17 -7,32 -20,44 -14,12 -33,19 -55,22 -17,2 -31,2 -44,-1 -14,-4 -24,-9 -33,-17l0 -42 32 -4 4 28c4,3 10,4 17,6 7,1 15,1 24,0 11,-2 19,-5 25,-11 6,-5 9,-11 9,-19 0,-8 -3,-14 -8,-17 -6,-4 -16,-7 -30,-10 -24,-3 -42,-9 -55,-17 -12,-7 -19,-20 -19,-36 0,-16 7,-31 21,-43 14,-12 32,-20 54,-23 15,-2 30,-2 43,1 13,3 24,8 32,14l0 41z"/>
  <path id="1" class="fil1" d="M1243 6596c8,-1 13,-4 18,-9 4,-5 6,-11 6,-18l38 -5 0 1c0,15 -5,28 -17,40 -12,12 -27,19 -45,22 -23,3 -40,-2 -52,-14 -13,-13 -19,-30 -19,-52l0 -4c0,-22 6,-41 19,-57 13,-16 31,-26 54,-29 12,-2 23,-1 33,1 10,2 18,6 25,12l0 40 -33 4 -7 -22c-2,-2 -5,-3 -8,-4 -3,0 -6,0 -10,0 -12,2 -20,7 -25,16 -4,9 -7,20 -7,33l0 4c0,14 3,24 7,32 4,7 12,10 23,9z"/>
  <path id="2" class="fil1" d="M1327 6588l19 -7 0 -93 -21 -1 0 -24 60 -8 2 21c3,-8 8,-15 13,-20 6,-5 13,-8 20,-9 2,0 4,-1 7,-1 2,0 4,1 6,1l-5 37 -16 2c-6,1 -11,3 -15,6 -4,2 -7,6 -9,11l0 72 19 2 0 24 -80 11 0 -24z"/>
  <path id="3" class="fil1" d="M1442 6520c0,-22 7,-41 19,-57 13,-16 31,-26 53,-29 23,-3 40,2 53,14 13,12 19,30 19,52l0 3c0,23 -6,42 -19,58 -13,16 -30,25 -52,28 -23,3 -41,-1 -54,-14 -12,-12 -19,-30 -19,-52l0 -3zm41 -3c0,14 3,24 8,32 5,8 13,11 24,9 10,-1 18,-7 23,-15 5,-9 7,-21 7,-34l0 -3c0,-13 -2,-24 -7,-32 -5,-7 -13,-10 -24,-9 -11,2 -18,7 -23,16 -5,9 -8,20 -8,33l0 3z"/>
  <polygon id="4" class="fil1" points="1597,6384 1597,6359 1660,6351 1660,6538 1680,6539 1680,6563 1599,6575 1599,6550 1619,6543 1619,6385 "/>
  <polygon id="5" class="fil1" points="1689,6371 1689,6347 1752,6338 1752,6525 1772,6527 1772,6551 1691,6562 1691,6538 1711,6531 1711,6372 "/>
  <path id="6" class="fil1" d="M1955 6507c-4,8 -10,14 -17,18 -6,5 -14,8 -22,9 -19,2 -33,-2 -44,-14 -10,-12 -15,-29 -15,-52l0 -2c0,-24 5,-44 15,-60 11,-16 25,-25 44,-28 8,-1 15,0 21,3 6,2 11,6 16,11l0 -53 -22 -1 0 -25 22 -3 41 -5 0 187 20 1 0 24 -55 8 -4 -18zm-57 -44c0,13 2,23 7,30 4,7 11,9 22,8 6,-1 11,-3 15,-6 5,-3 8,-7 11,-12l0 -63c-3,-5 -6,-8 -11,-10 -4,-2 -9,-2 -15,-2 -10,2 -18,7 -22,17 -5,9 -7,21 -7,35l0 3z"/>
  <path id="7" class="fil1" d="M2027 6439c0,-22 6,-41 19,-57 13,-16 30,-26 53,-29 22,-3 40,2 53,14 12,13 19,30 19,53l0 2c0,23 -6,42 -19,58 -13,16 -30,25 -53,29 -22,3 -40,-2 -53,-14 -13,-13 -19,-30 -19,-53l0 -3zm41 -2c0,13 3,24 7,31 5,8 13,11 24,10 11,-2 19,-7 23,-16 5,-9 8,-20 8,-34l0 -3c0,-13 -3,-23 -8,-31 -5,-8 -12,-11 -23,-10 -11,2 -19,7 -24,16 -4,9 -7,20 -7,34l0 3z"/>
  <polygon id="8" class="fil1" points="2406,6338 2391,6342 2359,6470 2325,6475 2296,6389 2295,6390 2267,6483 2233,6487 2201,6368 2185,6369 2185,6344 2254,6335 2254,6359 2238,6364 2253,6431 2253,6431 2282,6331 2310,6327 2338,6419 2339,6419 2353,6349 2337,6348 2337,6323 2406,6314 "/>
  <path id="9" class="fil1" d="M2418 6438l20 -7 0 -93 -22 -1 0 -25 60 -8 2 21c5,-8 11,-15 19,-20 7,-5 15,-9 25,-10 15,-2 27,1 36,9 8,9 13,23 13,43l0 65 19 2 0 24 -78 11 0 -24 17 -7 0 -65c0,-10 -2,-17 -6,-20 -4,-4 -10,-5 -19,-4 -5,1 -10,2 -14,5 -5,3 -8,6 -11,11l0 80 17 2 0 24 -78 11 0 -24z"/>
  <path id="10" class="fil1" d="M2735 6232l0 36 27 -3 0 28 -27 4 0 76c0,6 1,10 4,12 2,2 5,3 10,2 2,0 5,-1 7,-1 2,-1 4,-1 7,-2l4 28c-5,2 -10,4 -14,5 -5,2 -9,3 -15,3 -14,2 -25,0 -32,-7 -8,-6 -12,-18 -12,-34l0 -77 -22 4 0 -29 22 -3 0 -37 41 -5z"/>
  <path id="11" class="fil1" d="M2778 6336c0,-22 6,-41 19,-57 12,-16 30,-26 53,-29 22,-3 40,1 52,14 13,12 20,30 20,52l0 3c0,23 -7,42 -19,58 -13,16 -31,25 -53,28 -23,3 -40,-1 -53,-14 -13,-12 -19,-30 -19,-52l0 -3zm41 -3c0,14 2,24 7,32 5,8 13,11 24,9 10,-1 18,-7 23,-16 5,-9 8,-20 8,-33l0 -3c0,-14 -3,-24 -8,-32 -5,-7 -13,-10 -23,-9 -11,1 -19,7 -24,16 -5,9 -7,20 -7,33l0 3z"/>
  <path id="12" class="fil1" d="M3006 6259l0 -28 23 -3 0 -10c0,-19 6,-34 17,-46 12,-12 29,-19 50,-22 7,-1 14,-2 21,-1 8,0 16,1 25,3l-6 32c-7,-1 -13,-2 -18,-2 -6,0 -12,0 -20,1 -9,1 -16,5 -21,9 -5,5 -7,12 -7,20l0 10 92 -12 1 121 21 1 0 24 -83 12 0 -25 20 -7 0 -92 -51 7 0 92 20 2 0 24 -83 12 0 -25 22 -7 0 -93 -23 3z"/>
  <path id="13" class="fil1" d="M3196 6330l20 -7 0 -92 -22 -2 0 -24 60 -8 2 21c5,-8 12,-15 19,-20 7,-6 16,-9 25,-10 15,-2 27,1 36,9 9,8 13,23 13,43l0 65 20 1 0 25 -79 10 0 -24 18 -6 0 -65c0,-10 -2,-17 -6,-21 -5,-3 -11,-5 -19,-3 -6,0 -10,2 -15,5 -4,3 -8,6 -11,11l0 80 17 2 0 24 -78 10 0 -24z"/>
  <path id="14" class="fil1" d="M3480 6297c-5,8 -11,14 -17,18 -7,5 -14,8 -23,9 -18,2 -33,-2 -43,-14 -11,-12 -16,-30 -16,-52l0 -3c0,-23 5,-43 16,-59 10,-16 25,-25 44,-28 7,-1 14,0 20,2 6,3 12,7 16,12l0 -53 -22 -2 0 -24 22 -3 41 -6 1 188 19 1 0 24 -55 8 -3 -18zm-58 -44c0,13 2,23 7,30 4,7 12,9 22,8 6,-1 11,-3 16,-6 4,-3 8,-7 10,-12l0 -63c-2,-5 -6,-8 -10,-10 -5,-2 -10,-2 -16,-2 -10,2 -17,7 -22,17 -4,9 -7,21 -7,35l0 3z"/>
  <path id="15" class="fil1" d="M3622 6220c0,-23 6,-42 19,-58 13,-16 31,-25 53,-29 22,-3 40,2 53,15 13,12 19,29 19,52l0 3c0,22 -6,41 -19,57 -13,16 -30,26 -53,29 -22,3 -40,-2 -53,-14 -12,-13 -19,-30 -19,-53l0 -2zm41 -3c0,13 3,24 8,32 5,7 12,10 23,9 11,-2 19,-7 24,-16 5,-9 7,-20 7,-34l0 -3c0,-13 -3,-23 -7,-31 -5,-8 -13,-11 -24,-9 -11,1 -19,6 -23,15 -5,9 -8,21 -8,34l0 3z"/>
  <path id="16" class="fil1" d="M3891 6240c-5,7 -11,14 -18,18 -8,5 -16,8 -25,10 -16,2 -29,-2 -38,-10 -9,-9 -14,-24 -14,-46l0 -61 -16 -2 0 -25 16 -2 42 -6 0 91c0,11 1,18 5,23 4,4 9,6 17,4 6,0 12,-2 17,-5 4,-3 8,-6 11,-10l0 -81 -18 -2 0 -24 18 -2 41 -6 0 121 19 2 0 24 -55 7 -2 -18z"/>
  <path id="17" class="fil1" d="M4025 6054l0 37 27 -4 0 28 -27 4 0 76c0,6 1,10 3,12 3,2 6,3 10,3 3,-1 6,-1 8,-2 2,0 4,-1 7,-2l3 29c-4,2 -9,3 -13,5 -5,1 -10,2 -15,3 -14,2 -25,-1 -33,-7 -7,-7 -11,-18 -11,-35l0 -76 -23 3 0 -29 23 -3 0 -36 41 -6z"/>
  <path id="18" class="fil2 str0" d="M1151 6499l-30 5 -6 -27c-3,-2 -9,-3 -16,-4 -6,-1 -14,-1 -21,1 -12,1 -20,5 -26,10 -7,6 -10,12 -10,19 0,7 4,12 10,16 6,3 17,6 33,9 23,3 40,9 52,18 12,8 17,21 17,37 0,17 -7,32 -20,44 -14,12 -33,19 -55,22 -17,2 -31,2 -44,-1 -14,-4 -24,-9 -33,-17l0 -42 32 -4 4 28c4,3 10,4 17,6 7,1 15,1 24,0 11,-2 19,-5 25,-11 6,-5 9,-11 9,-19 0,-8 -3,-14 -8,-17 -6,-4 -16,-7 -30,-10 -24,-3 -42,-9 -55,-17 -12,-7 -19,-20 -19,-36 0,-16 7,-31 21,-43 14,-12 32,-20 54,-23 15,-2 30,-2 43,1 13,3 24,8 32,14l0 41z"/>
  <path id="19" class="fil2 str0" d="M1243 6596c8,-1 13,-4 18,-9 4,-5 6,-11 6,-18l38 -5 0 1c0,15 -5,28 -17,40 -12,12 -27,19 -45,22 -23,3 -40,-2 -52,-14 -13,-13 -19,-30 -19,-52l0 -4c0,-22 6,-41 19,-57 13,-16 31,-26 54,-29 12,-2 23,-1 33,1 10,2 18,6 25,12l0 40 -33 4 -7 -22c-2,-2 -5,-3 -8,-4 -3,0 -6,0 -10,0 -12,2 -20,7 -25,16 -4,9 -7,20 -7,33l0 4c0,14 3,24 7,32 4,7 12,10 23,9z"/>
  <path id="20" class="fil2 str0" d="M1327 6588l19 -7 0 -93 -21 -1 0 -24 60 -8 2 21c3,-8 8,-15 13,-20 6,-5 13,-8 20,-9 2,0 4,-1 7,-1 2,0 4,1 6,1l-5 37 -16 2c-6,1 -11,3 -15,6 -4,2 -7,6 -9,11l0 72 19 2 0 24 -80 11 0 -24z"/>
  <path id="21" class="fil2 str0" d="M1442 6520c0,-22 7,-41 19,-57 13,-16 31,-26 53,-29 23,-3 40,2 53,14 13,12 19,30 19,52l0 3c0,23 -6,42 -19,58 -13,16 -30,25 -52,28 -23,3 -41,-1 -54,-14 -12,-12 -19,-30 -19,-52l0 -3zm41 -3c0,14 3,24 8,32 5,8 13,11 24,9 10,-1 18,-7 23,-15 5,-9 7,-21 7,-34l0 -3c0,-13 -2,-24 -7,-32 -5,-7 -13,-10 -24,-9 -11,2 -18,7 -23,16 -5,9 -8,20 -8,33l0 3z"/>
  <polygon id="22" class="fil2 str0" points="1597,6384 1597,6359 1660,6351 1660,6538 1680,6539 1680,6563 1599,6575 1599,6550 1619,6543 1619,6385 "/>
  <polygon id="23" class="fil2 str0" points="1689,6371 1689,6347 1752,6338 1752,6525 1772,6527 1772,6551 1691,6562 1691,6538 1711,6531 1711,6372 "/>
  <path id="24" class="fil2 str0" d="M1955 6507c-4,8 -10,14 -17,18 -6,5 -14,8 -22,9 -19,2 -33,-2 -44,-14 -10,-12 -15,-29 -15,-52l0 -2c0,-24 5,-44 15,-60 11,-16 25,-25 44,-28 8,-1 15,0 21,3 6,2 11,6 16,11l0 -53 -22 -1 0 -25 22 -3 41 -5 0 187 20 1 0 24 -55 8 -4 -18zm-57 -44c0,13 2,23 7,30 4,7 11,9 22,8 6,-1 11,-3 15,-6 5,-3 8,-7 11,-12l0 -63c-3,-5 -6,-8 -11,-10 -4,-2 -9,-2 -15,-2 -10,2 -18,7 -22,17 -5,9 -7,21 -7,35l0 3z"/>
  <path id="25" class="fil2 str0" d="M2027 6439c0,-22 6,-41 19,-57 13,-16 30,-26 53,-29 22,-3 40,2 53,14 12,13 19,30 19,53l0 2c0,23 -6,42 -19,58 -13,16 -30,25 -53,29 -22,3 -40,-2 -53,-14 -13,-13 -19,-30 -19,-53l0 -3zm41 -2c0,13 3,24 7,31 5,8 13,11 24,10 11,-2 19,-7 23,-16 5,-9 8,-20 8,-34l0 -3c0,-13 -3,-23 -8,-31 -5,-8 -12,-11 -23,-10 -11,2 -19,7 -24,16 -4,9 -7,20 -7,34l0 3z"/>
  <polygon id="26" class="fil2 str0" points="2406,6338 2391,6342 2359,6470 2325,6475 2296,6389 2295,6390 2267,6483 2233,6487 2201,6368 2185,6369 2185,6344 2254,6335 2254,6359 2238,6364 2253,6431 2253,6431 2282,6331 2310,6327 2338,6419 2339,6419 2353,6349 2337,6348 2337,6323 2406,6314 "/>
  <path id="27" class="fil2 str0" d="M2418 6438l20 -7 0 -93 -22 -1 0 -25 60 -8 2 21c5,-8 11,-15 19,-20 7,-5 15,-9 25,-10 15,-2 27,1 36,9 8,9 13,23 13,43l0 65 19 2 0 24 -78 11 0 -24 17 -7 0 -65c0,-10 -2,-17 -6,-20 -4,-4 -10,-5 -19,-4 -5,1 -10,2 -14,5 -5,3 -8,6 -11,11l0 80 17 2 0 24 -78 11 0 -24z"/>
  <path id="28" class="fil2 str0" d="M2735 6232l0 36 27 -3 0 28 -27 4 0 76c0,6 1,10 4,12 2,2 5,3 10,2 2,0 5,-1 7,-1 2,-1 4,-1 7,-2l4 28c-5,2 -10,4 -14,5 -5,2 -9,3 -15,3 -14,2 -25,0 -32,-7 -8,-6 -12,-18 -12,-34l0 -77 -22 4 0 -29 22 -3 0 -37 41 -5z"/>
  <path id="29" class="fil2 str0" d="M2778 6336c0,-22 6,-41 19,-57 12,-16 30,-26 53,-29 22,-3 40,1 52,14 13,12 20,30 20,52l0 3c0,23 -7,42 -19,58 -13,16 -31,25 -53,28 -23,3 -40,-1 -53,-14 -13,-12 -19,-30 -19,-52l0 -3zm41 -3c0,14 2,24 7,32 5,8 13,11 24,9 10,-1 18,-7 23,-16 5,-9 8,-20 8,-33l0 -3c0,-14 -3,-24 -8,-32 -5,-7 -13,-10 -23,-9 -11,1 -19,7 -24,16 -5,9 -7,20 -7,33l0 3z"/>
  <path id="30" class="fil2 str0" d="M3006 6259l0 -28 23 -3 0 -10c0,-19 6,-34 17,-46 12,-12 29,-19 50,-22 7,-1 14,-2 21,-1 8,0 16,1 25,3l-6 32c-7,-1 -13,-2 -18,-2 -6,0 -12,0 -20,1 -9,1 -16,5 -21,9 -5,5 -7,12 -7,20l0 10 92 -12 1 121 21 1 0 24 -83 12 0 -25 20 -7 0 -92 -51 7 0 92 20 2 0 24 -83 12 0 -25 22 -7 0 -93 -23 3z"/>
  <path id="31" class="fil2 str0" d="M3196 6330l20 -7 0 -92 -22 -2 0 -24 60 -8 2 21c5,-8 12,-15 19,-20 7,-6 16,-9 25,-10 15,-2 27,1 36,9 9,8 13,23 13,43l0 65 20 1 0 25 -79 10 0 -24 18 -6 0 -65c0,-10 -2,-17 -6,-21 -5,-3 -11,-5 -19,-3 -6,0 -10,2 -15,5 -4,3 -8,6 -11,11l0 80 17 2 0 24 -78 10 0 -24z"/>
  <path id="32" class="fil2 str0" d="M3480 6297c-5,8 -11,14 -17,18 -7,5 -14,8 -23,9 -18,2 -33,-2 -43,-14 -11,-12 -16,-30 -16,-52l0 -3c0,-23 5,-43 16,-59 10,-16 25,-25 44,-28 7,-1 14,0 20,2 6,3 12,7 16,12l0 -53 -22 -2 0 -24 22 -3 41 -6 1 188 19 1 0 24 -55 8 -3 -18zm-58 -44c0,13 2,23 7,30 4,7 12,9 22,8 6,-1 11,-3 16,-6 4,-3 8,-7 10,-12l0 -63c-2,-5 -6,-8 -10,-10 -5,-2 -10,-2 -16,-2 -10,2 -17,7 -22,17 -4,9 -7,21 -7,35l0 3z"/>
  <path id="33" class="fil2 str0" d="M3622 6220c0,-23 6,-42 19,-58 13,-16 31,-25 53,-29 22,-3 40,2 53,15 13,12 19,29 19,52l0 3c0,22 -6,41 -19,57 -13,16 -30,26 -53,29 -22,3 -40,-2 -53,-14 -12,-13 -19,-30 -19,-53l0 -2zm41 -3c0,13 3,24 8,32 5,7 12,10 23,9 11,-2 19,-7 24,-16 5,-9 7,-20 7,-34l0 -3c0,-13 -3,-23 -7,-31 -5,-8 -13,-11 -24,-9 -11,1 -19,6 -23,15 -5,9 -8,21 -8,34l0 3z"/>
  <path id="34" class="fil2 str0" d="M3891 6240c-5,7 -11,14 -18,18 -8,5 -16,8 -25,10 -16,2 -29,-2 -38,-10 -9,-9 -14,-24 -14,-46l0 -61 -16 -2 0 -25 16 -2 42 -6 0 91c0,11 1,18 5,23 4,4 9,6 17,4 6,0 12,-2 17,-5 4,-3 8,-6 11,-10l0 -81 -18 -2 0 -24 18 -2 41 -6 0 121 19 2 0 24 -55 7 -2 -18z"/>
  <path id="35" class="fil2 str0" d="M4025 6054l0 37 27 -4 0 28 -27 4 0 76c0,6 1,10 3,12 3,2 6,3 10,3 3,-1 6,-1 8,-2 2,0 4,-1 7,-2l3 29c-4,2 -9,3 -13,5 -5,1 -10,2 -15,3 -14,2 -25,-1 -33,-7 -7,-7 -11,-18 -11,-35l0 -76 -23 3 0 -29 23 -3 0 -36 41 -6z"/>
 </g>
 <g id="Layer_x0020_1_0">
  <metadata id="CorelCorpID_1Corel-Layer"/>
  <g id="_1291977515872">
   <path class="fil3" d="M1931 1238l61 -484 584 -142 186 198 17 110 11 31 4 94 30 120 -9 179 -26 120 -428 220 -430 -446 0 0zm564 643c71,140 123,280 167,421 22,-125 40,-252 31,-392l0 -126 -198 97 0 0zm964 2451l36 26c19,14 11,51 26,73 16,25 45,29 68,43 16,10 30,47 28,73 -6,41 -24,67 -61,84 -30,13 -116,-22 -129,-38l32 -261 0 0zm462 -956c18,0 30,9 28,33 -12,160 -22,288 -81,490 -29,98 -71,194 -129,286 -31,48 -179,60 -210,6l149 -294 65 -432 178 -89 0 0zm-3907 43c-6,-57 -2,-107 23,-172 62,-33 130,-33 196,-7 237,97 408,456 610,710 158,200 402,363 597,494 40,27 67,119 94,241l-5 99c-3,15 -17,29 -39,41l-51 12c-80,-7 -131,-44 -170,-95 -13,-33 -16,-65 -5,-98l-6 -35 -61 -110 -1183 -1080 0 0z"/>
   <g>
    <path class="fil1" d="M1490 4825c6,-2 13,-9 18,-13 9,-7 17,-16 21,-28l5 -99 19 44 -3 58 -1 3c-6,16 -16,29 -28,38 -12,10 -29,20 -46,24l15 -27 0 0zm132 -131c-3,15 -5,28 -5,45l-1 4c-8,17 -19,29 -31,38 -13,8 -28,12 -44,16l-3 -20c13,-3 25,-7 36,-14 9,-6 17,-14 22,-27 1,-17 3,-31 5,-44 2,-15 4,-29 4,-45l17 47 0 0zm-353 48c23,30 48,52 77,68 37,19 53,23 93,27l-2 20c-48,-5 -121,-32 -154,-69l-14 -46zm-55 -191c21,39 56,72 79,91 32,29 70,52 114,72l6 2 0 7c3,29 2,60 -35,72l-26 -33 30 -24c-4,-2 -2,-14 -6,-16 -38,-18 -68,-39 -97,-64 -33,-29 -33,-35 -59,-69l-6 -38 0 0zm1582 -2615l277 87c290,492 240,1704 158,2353 -6,62 -62,106 -123,101 -62,-6 -107,-61 -101,-123 78,-590 130,-1906 -211,-2418l0 0zm-1113 36l228 -78c447,480 667,1823 712,2472 7,63 -39,117 -100,124 -62,6 -117,-39 -124,-101 -38,-588 -283,-1978 -716,-2417l0 0zm1512 2475l28 180 -40 8 -25 -164 37 -24zm-232 204l72 -211 33 26 -62 182 -43 3 0 0zm-1309 -238l8 74 2 146 17 26 167 210 269 140 466 129 231 -137 170 57 341 -191 104 -287 -52 14 -203 43 -401 27 -391 -4 -367 -20 -27 -50 83 -49 25 -42 -18 -35 54 -65 39 -10 7 -65 75 -58 -17 -151 35 9 13 -51 -88 -35 -3 32 -100 -51 -186 98 -56 72 -14 -38 -22 52 -66 21 -14 29 77 6 -6 31 -44 -8 -29 31 -17 80 -34 10c-12,-29 -30,-56 -60,-81 -37,-14 -82,-25 -132,-34 37,12 74,25 111,46 31,23 47,50 53,79l0 0zm949 30l61 220 -43 -1 -52 -188 34 -31zm-242 216l63 -210 34 28 -55 184 -42 -2zm-2251 -1075c325,357 713,655 1087,915 -2,-27 -3,-52 5,-75 -33,-2 -65,-7 -92,-28 -337,-271 -684,-604 -916,-962 -64,-29 -123,-33 -180,-15 14,55 47,107 96,165l0 0zm568 -163c80,102 146,206 211,307 29,45 58,89 86,131 56,84 122,155 189,222 68,66 136,127 209,187l-94 -54c-74,-60 -60,-52 -129,-119 -68,-67 -135,-140 -192,-225 -29,-42 -58,-86 -86,-131 -65,-101 -133,-208 -212,-309l18 -9 0 0zm2113 -1504c184,61 382,113 566,152l-36 16c-184,-38 -340,-88 -525,-149l-5 -19zm-273 -13c38,67 54,130 82,198 23,54 42,109 60,164 9,-50 16,-100 20,-153 6,-66 8,-133 2,-204l1 -7c2,-1 2,-2 3,-3 14,-22 20,-49 18,-72 0,-23 -8,-44 -20,-52l9 -18c21,15 31,44 32,68 2,28 -5,60 -22,86l0 0c5,70 3,138 -2,204 -6,66 -14,162 -40,223 -20,-67 -52,-162 -79,-229 -28,-67 -51,-138 -88,-205l24 0 0 0zm-439 -195c-14,16 -29,36 -39,55 -8,16 -15,32 -17,50 32,41 67,76 103,109 35,31 73,60 113,90 25,-27 48,-54 68,-82 22,-30 36,-52 50,-85l21 29c-15,34 -25,45 -47,76 -23,31 -48,62 -76,90l-6 7 -15 -14c-43,-32 -84,-63 -121,-96 -39,-35 -74,-72 -108,-115l-3 -6c3,-23 10,-43 21,-63 10,-20 26,-43 42,-61l14 16 0 0zm146 -396l65 76 36 49 19 7 60 4 85 12 106 11 66 -8 115 -4 22 6 10 9 -11 36 -94 82 -12 168c26,57 24,103 -3,133l-4 -33 -28 -27 -68 99 -42 -29 -53 0 -27 -44 -398 -154 -4 -13 31 -21 -11 -39 -24 -30 -62 -106 -97 -215 -22 -78 -34 -167 -28 -41 -10 -86 13 -61 19 -27 30 -12 4 -21 6 -21 17 -36 70 -61 114 -67 60 -32 170 -57 95 -12 56 16 58 32 32 1 96 33 77 51 39 52 28 52 13 105 -6 38 -20 37 -55 -138 -98 -72 -12 8 -50 -8 -14 -14 -22 11 -27 -10 -16 9 -11 -13 -10 4 -3 24 -14 -5 -38 -19 -77 17 -16 -6 -72 96 -3 46 15 34 -69 120 11 122 -33 72 -44 -1 -44 -55c-14,-12 -29,-22 -46,-23 -13,0 -25,3 -36,8 -19,10 -26,26 -30,41 -5,20 -1,48 4,66 13,47 54,85 89,117 18,17 40,26 62,34 12,4 30,5 39,4 10,-2 19,-4 26,-11 6,-7 6,-13 6,-23l34 -42 0 0zm135 -372l10 18 20 3 9 6 32 3 39 -1 16 14 58 0 28 -21 21 -5 31 -37 -7 -27 -92 -17 -66 6 -82 40 -17 18 0 0zm315 -12l1 22 118 94 8 -36 -3 -44 -16 -29 -34 -24 -60 -1 -14 18 0 0zm-16 190l26 -19 46 -6 58 7 3 31 -24 31 -7 11 -5 -13 -26 -18 -39 -3 -13 14 -23 5 -21 -5 25 -35 0 0zm-71 121l26 2 30 -5 14 -6 26 -7 14 -5 15 -1 13 3 9 5 16 1 7 0 9 10 6 16 9 11 4 10 2 12 -5 3 -9 -9 -2 -14 -13 -8 -12 -5 -20 -2 -26 -9 -26 1 -27 10 -9 5 -39 5 -22 -2 -1 -7 11 -14 0 0zm-1596 1611c330,-157 590,-214 912,-226 12,0 24,5 25,19 22,228 11,480 -72,695l-48 -13c-40,39 -77,115 -122,80l-2 -31 -47 -91 -84 -17c-20,-29 -29,-60 -31,-92l-69 -76 9 -20c26,-4 47,-12 55,-30 20,-39 -1,-68 -28,-59l-69 21 -44 18c169,482 169,593 209,1090l-29 -102c-55,-474 -75,-543 -220,-970l-522 216 0 89 0 6 -6 3 -142 66 -7 3 -5 -5c-67,-69 -142,-133 -224,-193 -84,-60 -173,-115 -265,-163l-5 -2 0 -6 -2 -34 0 -2c6,-31 27,-64 52,-94 21,-26 71,-74 101,-88l25 -13 40 -163 4 -5c134,-113 275,-220 428,-327 142,-98 295,-180 451,-267l3 -1c156,-37 291,-75 413,-114 123,-40 230,-77 338,-118l14 17c-108,39 -221,81 -345,120 -117,37 -248,83 -394,118 -164,76 -320,174 -464,275 -152,105 -296,216 -429,328l-36 147 -2 5 -4 1 -16 10 -15 9c-43,24 -108,103 -112,153l65 9c144,77 253,156 361,250l163 -30c6,-47 -12,-89 -54,-125 0,-6 3,-11 10,-12l49 -5c23,-49 78,-84 180,-95 70,-38 139,-77 192,-118l-149 -8c-18,-1 -32,-10 -41,-22l5 -11 0 0zm294 -777c82,43 138,102 203,190 51,68 89,138 127,228 15,43 18,75 26,104 -49,-128 -105,-235 -169,-320 -63,-85 -135,-148 -213,-189l26 -13 0 0zm-809 915l-25 -17c-20,-25 -59,-67 -67,-93l-50 7 -64 24 98 -109 164 -159 17 14 159 -158 26 -5c-101,130 -199,339 -242,482l-16 14zm164 80l36 17 25 -7 55 -52 65 -45 25 -12 16 -28 3 -27 -9 -12 -51 28c-114,52 -164,97 -165,138zm2052 -1312c29,17 55,48 76,97 21,48 37,113 49,201l-6 2c-22,-81 -61,-143 -77,-187l-11 -58c-18,-33 -20,-25 -41,-37l10 -18 0 0zm724 325c71,37 136,112 197,212 61,99 119,222 174,357 19,11 38,22 58,36 21,14 31,21 55,41l11 24 -9 119c-2,10 -11,20 -22,20 -15,-13 -26,-18 -27,-34 -9,-47 -7,-84 3,-127l-17 -22c-20,-15 -43,-34 -61,-44l-4 -4c-56,-135 -113,-259 -174,-357 -60,-99 -111,-153 -180,-189l-4 -32 0 0zm-62 425c124,461 169,1483 74,2073l-52 14c61,-386 84,-789 71,-1169 -14,-389 -64,-753 -148,-1050l55 132 0 0zm605 348c35,15 82,53 97,88l61 137c11,24 8,51 -1,81 -7,19 -19,20 -18,43l0 33c-21,27 -42,54 -62,80l-232 117 -6 35 -26 28c-36,151 -35,310 -102,442l-77 153 -65 99 -62 38 2 -42 47 -12 64 -101 85 -273 57 -321 6 -91c0,-5 -8,-20 -13,-21 -5,-1 -19,-3 -24,-4l0 0 0 0 -4 -1 -103 -89 -122 -16 -5 -67 137 50 104 104c40,8 84,22 129,3l234 -105c16,-30 24,-40 33,-67 8,-27 11,-56 2,-75l-49 -127c-26,-68 -68,-88 -122,-118l35 -1 0 0zm-218 1480c22,-60 44,-143 83,-225 34,-69 72,-140 115,-210 34,-78 77,-152 104,-234 28,-80 51,-163 68,-248l4 -120 8 19 9 103 -1 1c-17,87 -40,170 -68,252 -28,81 -60,161 -94,239l0 2c-43,69 -83,141 -116,211 -39,81 -55,149 -76,209l-36 1 0 0zm-242 302c20,8 30,9 60,5 41,-28 78,-66 106,-112 30,-44 52,-85 70,-138l6 22c-18,54 -31,89 -60,136 -28,47 -70,92 -113,122l-5 1c-24,2 -41,-6 -60,-12 -8,-3 -17,-7 -26,-12l22 -12 0 0zm-3306 -1553c-65,61 -118,132 -160,212l-34 25c21,-47 45,-91 72,-133 27,-41 57,-83 89,-121l33 17zm2587 -442c158,579 126,1279 99,1873l-43 -14c29,-652 83,-1345 -112,-1975l56 116 0 0zm-1095 911l26 14 1 40 31 8 0 67 -32 114 -42 76 1 48 37 15 -12 31 62 -7 82 13 -21 30 39 21 36 -5 12 -35 46 -23c112,-136 182,-277 186,-424l4 -153 -93 -93 -49 81 54 -157c-99,158 -217,280 -368,339l0 0zm-5 1106l-2 45 -2 3c-6,12 -17,24 -30,32 -12,7 -19,12 -34,10l4 -21c11,1 11,-2 20,-7 9,-5 17,-13 21,-22l6 -66 17 26 0 0zm1696 -2062l31 10 52 48 65 34 64 14 17 22 -29 12 -73 -27 -54 -32 -27 -27 -34 6 -12 -60 0 0zm41 238l100 2 30 7 27 -3 58 30 40 7 15 22 -36 14 -12 47 21 18 -9 23 -82 66 -19 33 -29 11 -11 19 -40 5 -20 -10 -8 -94 36 -11 40 -44 47 -16 6 -20 -15 -18 -54 10 -26 -13 -28 2 -17 25 -14 -112zm39 356c117,-28 234,-97 313,-168l53 -29c-59,82 -164,174 -298,222l-68 -25 0 0zm96 1378c-15,13 -48,29 -72,31 -21,3 -39,3 -54,-7l4 -21c11,7 31,10 49,8 10,-1 22,-5 34,-10l39 -1zm-764 -3105l26 -120 6 69 -12 62 -20 -11 0 0z"/>
   </g>
  </g>
  <line class="fil2" x1="3639" y1="247" x2="3687" y2= "0" />
 </g>
</svg>
